<svg width="24" height="18" viewBox="0 0 24 18" fill="none" xmlns="http://www.w3.org/2000/svg">
<path d="M0 2.39443L0.193468 1.79883L7.44381 8.98051L0.187833 16.1628L0 15.6054V2.39443Z" fill="#40128B"/>
<path d="M1.21411 0.737658C1.49836 0.675095 1.73816 0.620039 1.97922 0.574993C2.06453 0.564021 2.15066 0.56088 2.23655 0.565608C8.74307 0.565608 15.2494 0.568319 21.7555 0.573742C22.0829 0.573742 22.4098 0.653823 22.7366 0.698869L22.8099 0.850899C22.7322 0.888437 22.6364 0.909083 22.5788 0.966641C19.2788 4.27 15.9813 7.57503 12.6863 10.8817C12.2267 11.3428 11.7835 11.3447 11.3276 10.888C8.02221 7.57587 4.71802 4.26375 1.41509 0.951626C1.36125 0.897821 1.30991 0.840263 1.21411 0.737658Z" fill="#40128B"/>
<path d="M1.25226 17.2327L8.49947 10.0623C9.10554 10.6654 9.75168 11.3136 10.3997 11.9524C11.106 12.6499 12.1008 12.8364 12.963 12.4072C13.211 12.2764 13.4378 12.1092 13.6361 11.9111C14.2202 11.348 14.7862 10.7649 15.3597 10.1899C15.4223 10.1274 15.4812 10.0742 15.5113 10.0454L22.796 17.2571C22.5068 17.3197 22.2726 17.3823 22.0353 17.4254C21.9345 17.437 21.8329 17.4395 21.7316 17.4329C15.2422 17.4329 8.75283 17.4329 2.26342 17.4329C1.91656 17.4342 1.58034 17.4004 1.25226 17.2327Z" fill="#40128B"/>
<path d="M23.8328 16.2243L16.5562 9.01636L23.8366 1.81152C23.8867 2.06616 23.9913 2.3502 23.9919 2.63486C24.0027 6.88002 24.0027 11.125 23.9919 15.3697C23.9913 15.65 23.8898 15.9296 23.8328 16.2243Z" fill="#40128B"/>
</svg>
