<svg width="24" height="16" viewBox="0 0 24 16" fill="none" xmlns="http://www.w3.org/2000/svg">
<path d="M11.8807 0.707031C17.1213 0.932298 21.0898 3.10608 23.8238 7.45834C24.0591 7.83267 24.0584 8.17692 23.8238 8.55392C21.5878 12.1702 18.3813 14.3794 14.1982 15.1047C8.67011 16.0539 2.98631 13.3574 0.146083 8.49777C-0.0544506 8.15085 -0.0477661 7.82932 0.161457 7.48908C2.35218 3.92404 5.50145 1.74936 9.60927 0.965051C10.4 0.81532 11.2122 0.78056 11.8807 0.707031ZM12.0083 3.00916C11.019 3.00798 10.0515 3.30003 9.22814 3.84843C8.40473 4.39684 7.76233 5.17698 7.3821 6.0903C7.00186 7.00362 6.90084 8.00915 7.09181 8.97986C7.28278 9.95057 7.75716 10.8429 8.45503 11.5441C9.1529 12.2454 10.0429 12.724 11.0127 12.9196C11.9825 13.1153 12.9885 13.0191 13.9036 12.6432C14.8188 12.2674 15.602 11.6288 16.1543 10.808C16.7067 9.98723 17.0034 9.02117 17.007 8.03186C17.0088 7.37378 16.881 6.72178 16.6307 6.11313C16.3804 5.50449 16.0127 4.95112 15.5485 4.48467C15.0843 4.01821 14.5327 3.64781 13.9252 3.39464C13.3178 3.14146 12.6664 3.01047 12.0083 3.00916Z" fill="#40128B"/>
<path d="M12.0022 11.4165C11.3291 11.4165 10.6712 11.2169 10.1115 10.843C9.55191 10.469 9.11573 9.93753 8.85817 9.31571C8.6006 8.69388 8.5332 8.00964 8.66451 7.34951C8.79582 6.68938 9.11993 6.08301 9.59586 5.60709C10.0718 5.13116 10.6781 4.80705 11.3383 4.67574C11.9984 4.54443 12.6826 4.61183 13.3045 4.8694C13.9263 5.12697 14.4578 5.56314 14.8317 6.12277C15.2057 6.6824 15.4052 7.34035 15.4052 8.01341C15.4037 8.91547 15.0446 9.78013 14.4068 10.418C13.7689 11.0558 12.9042 11.4149 12.0022 11.4165Z" fill="#40128B"/>
</svg>
