<svg width="20" height="24" viewBox="0 0 20 24" fill="none" xmlns="http://www.w3.org/2000/svg">
<path d="M3.14289 24C2.51432 24 1.97604 23.776 1.52804 23.328C1.08004 22.88 0.856418 22.3421 0.85718 21.7143V10.2857C0.85718 9.65714 1.08118 9.11886 1.52918 8.67086C1.97718 8.22286 2.51508 7.99924 3.14289 8H4.28575V5.71429C4.28575 4.13333 4.84308 2.78552 5.95775 1.67086C7.07242 0.556191 8.41985 -0.000761124 10 7.8064e-07C11.581 7.8064e-07 12.9288 0.557334 14.0435 1.672C15.1581 2.78667 15.7151 4.1341 15.7143 5.71429V8H16.8572C17.4858 8 18.024 8.224 18.472 8.672C18.92 9.12 19.1437 9.65791 19.1429 10.2857V21.7143C19.1429 22.3429 18.9189 22.8811 18.4709 23.3291C18.0229 23.7771 17.485 24.0008 16.8572 24H3.14289ZM10 18.2857C10.6286 18.2857 11.1669 18.0617 11.6149 17.6137C12.0629 17.1657 12.2865 16.6278 12.2858 16C12.2858 15.3714 12.0618 14.8331 11.6138 14.3851C11.1658 13.9371 10.6278 13.7135 10 13.7143C9.37146 13.7143 8.83318 13.9383 8.38518 14.3863C7.93718 14.8343 7.71356 15.3722 7.71432 16C7.71432 16.6286 7.93832 17.1669 8.38632 17.6149C8.83432 18.0629 9.37223 18.2865 10 18.2857ZM6.57147 8H13.4286V5.71429C13.4286 4.76191 13.0953 3.95238 12.4286 3.28571C11.7619 2.61905 10.9524 2.28571 10 2.28571C9.04766 2.28571 8.23813 2.61905 7.57147 3.28571C6.9048 3.95238 6.57147 4.76191 6.57147 5.71429V8Z" fill="white"/>
</svg>
