<svg width="14" height="25" viewBox="0 0 14 25" fill="none" xmlns="http://www.w3.org/2000/svg">
<path d="M1.45653 24.4365C0.940299 24.3049 0.489493 24.0625 0.267389 23.5513C0.147718 23.2827 0.0826692 22.9926 0.0760718 22.6983C0.0654431 15.8558 0.062511 9.01318 0.0672756 2.17037C0.0700244 1.11424 0.760527 0.436523 1.81827 0.436523C5.26528 0.436523 8.71321 0.436523 12.1621 0.436523C13.2616 0.436523 13.9345 1.11258 13.935 2.21684C13.935 5.34927 13.935 8.48152 13.935 11.6136C13.935 15.2926 13.935 18.9718 13.935 22.6512C13.935 23.3754 13.6646 23.9403 13.0004 24.2739C12.857 24.3463 12.6964 24.3845 12.5436 24.436L1.45653 24.4365ZM12.7937 21.4302V3.02623H1.20693V21.4302H12.7937ZM7.79914 22.8216C7.79892 22.6627 7.7519 22.5074 7.66402 22.3754C7.57614 22.2433 7.45134 22.1405 7.30539 22.0798C7.15944 22.0191 6.99889 22.0033 6.84402 22.0344C6.68916 22.0655 6.54693 22.1421 6.4353 22.2545C6.32367 22.3669 6.24766 22.5101 6.21687 22.666C6.18607 22.8218 6.20187 22.9834 6.26228 23.1302C6.32269 23.2771 6.42499 23.4026 6.55626 23.4909C6.68752 23.5793 6.84187 23.6265 6.99978 23.6266C7.21166 23.6259 7.41464 23.5408 7.56441 23.39C7.71417 23.2392 7.79856 23.0348 7.79914 22.8216ZM6.97724 1.99389C7.51931 1.99389 8.06138 1.99389 8.60344 1.99389C8.74418 1.99389 8.88712 1.98227 8.88657 1.80081C8.88602 1.61935 8.74748 1.60551 8.60399 1.60607C7.53489 1.60607 6.46596 1.60607 5.39723 1.60607C5.25374 1.60607 5.1152 1.62322 5.1141 1.80081C5.113 1.9784 5.25649 1.99444 5.39723 1.99389C5.9239 1.99315 6.45057 1.99315 6.97724 1.99389Z" fill="#40128B"/>
</svg>
