<svg width="24" height="24" viewBox="0 0 24 24" fill="none" xmlns="http://www.w3.org/2000/svg">
<circle cx="12" cy="12" r="12" fill="#909090"/>
<circle cx="12" cy="12" r="12" fill="url(#paint0_linear_423_2)" fill-opacity="0.2"/>
<path d="M9.88642 15.6272L8.22389 12.655H7.51138V15.6272H6V8H8.82845C9.41141 8 9.90801 8.10563 10.3182 8.31689C10.7285 8.52087 11.0343 8.80133 11.2359 9.15829C11.4446 9.50797 11.5489 9.90135 11.5489 10.3384C11.5489 10.8411 11.405 11.2964 11.1171 11.7044C10.8292 12.105 10.401 12.3818 9.83244 12.5348L11.6353 15.6272H9.88642ZM7.51138 11.5077H8.77447C9.1847 11.5077 9.49058 11.4093 9.6921 11.2126C9.89361 11.0086 9.99437 10.7282 9.99437 10.3712C9.99437 10.0215 9.89361 9.75201 9.6921 9.5626C9.49058 9.36591 9.1847 9.26757 8.77447 9.26757H7.51138V11.5077Z" fill="white"/>
<path d="M18 12.6112C18 13.0191 17.9028 13.4016 17.7085 13.7585C17.5214 14.1155 17.2227 14.4032 16.8125 14.6218C16.4094 14.8403 15.8985 14.9496 15.2795 14.9496H14.0164V17.8781H12.505V10.2509H15.2795C15.8625 10.2509 16.3591 10.3529 16.7693 10.5568C17.1795 10.7608 17.4854 11.0413 17.6869 11.3982C17.8956 11.7552 18 12.1595 18 12.6112ZM15.2147 13.7148C15.6322 13.7148 15.9416 13.6201 16.1432 13.4307C16.3447 13.234 16.4454 12.9608 16.4454 12.6112C16.4454 11.8681 16.0352 11.4966 15.2147 11.4966H14.0164V13.7148H15.2147Z" fill="white"/>
<defs>
<linearGradient id="paint0_linear_423_2" x1="12" y1="0" x2="12" y2="24" gradientUnits="userSpaceOnUse">
<stop stop-opacity="0"/>
<stop offset="1"/>
</linearGradient>
</defs>
</svg>
